<svg width="86" height="85" viewBox="0 0 86 85" fill="none" xmlns="http://www.w3.org/2000/svg">
<ellipse cx="43" cy="42.5" rx="43" ry="42.5" fill="#CDD0D4"/>
<ellipse cx="43" cy="78" rx="28" ry="22" fill="#FFC001"/>
<ellipse cx="43" cy="32" rx="18" ry="21" fill="#FFEDCA"/>
<rect x="37" y="45" width="12" height="18" rx="6" fill="#FFEDCA"/>
<path d="M36 53L42.0622 63.5H29.9378L36 53Z" fill="white"/>
<path d="M50 53L56.0622 63.5H43.9378L50 53Z" fill="white"/>
<path d="M61.0753 32C64.0026 29.4733 62.7204 27.2712 62.7204 23.6979C62.7204 20.1246 61.7454 18.4674 58.818 15.9407C55.8907 13.414 54.1775 9 50.0376 9C45.8977 9 41.9274 10.4195 39 12.9462L50.5254 22.0648L61.0753 32Z" fill="black"/>
<path d="M51 20C48 13.5 42.258 8.5 38 8.5C33.742 8.5 29.1257 13.1799 26.1148 15.8164C23.1039 18.453 22.1012 21.0343 22.1012 24.763C22.1012 28.4916 21.284 30.3634 24.2949 33L31 26L40.5 21L51 20Z" fill="black"/>
</svg>
